<mxfile host="app.diagrams.net" modified="2023-07-26T01:48:24.859Z" agent="Mozilla/5.0 (Windows NT 10.0; Win64; x64) AppleWebKit/537.36 (KHTML, like Gecko) Chrome/115.0.0.0 Safari/537.36 Edg/115.0.1901.183" version="21.6.5" etag="90YW02Z4RGcSjQrc7SAB" type="github">
  <diagram name="第 1 页" id="3gR5G5Qrm7RXvYCktuTw">
    <mxGraphModel>
      <root>
        <mxCell id="0" />
        <mxCell id="1" parent="0" />
      </root>
    </mxGraphModel>
  </diagram>
</mxfile>
